<?xml version="1.0" encoding="UTF-8"?>
<!DOCTYPE svg PUBLIC "-//W3C//DTD SVG 1.1//EN" "http://www.w3.org/Graphics/SVG/1.1/DTD/svg11.dtd">
<!-- Creator: CorelDRAW X7 -->
<svg xmlns="http://www.w3.org/2000/svg" xml:space="preserve" width="3.3866mm" height="3.3866mm" version="1.1" style="shape-rendering:geometricPrecision; text-rendering:geometricPrecision; image-rendering:optimizeQuality; fill-rule:evenodd; clip-rule:evenodd"
viewBox="0 0 339 339"
 xmlns:xlink="http://www.w3.org/1999/xlink">
 <defs>
  <style type="text/css">
   <![CDATA[
    .fil0 {fill:black;fill-rule:nonzero}
   ]]>
  </style>
 </defs>
 <g id="Capa_x0020_1">
  <metadata id="CorelCorpID_0Corel-Layer"/>
  <path class="fil0" d="M174 84l0 212c-1,3 -3,4 -5,4 -3,0 -5,-2 -5,-4l0 -57c0,0 0,-1 0,-1l0 -63c0,0 0,0 0,0 0,-1 0,-1 0,-1l0 -62c0,-1 0,-2 0,-2l0 -26c-4,0 -8,-3 -12,-6l0 0c-4,-4 -7,-10 -7,-17 0,-6 3,-12 7,-16l0 0c4,-4 10,-7 17,-7 6,0 12,3 16,7l0 0c5,4 7,10 7,16 0,7 -2,13 -7,17l0 0c-3,3 -7,5 -11,6zm-59 212c0,3 -2,5 -4,5 -3,0 -5,-2 -5,-5l0 -91 0 0c0,-8 -1,-13 -4,-17 -2,-4 -6,-7 -12,-11l-29 -22c-4,3 -10,6 -16,6 -6,0 -12,-3 -16,-7l0 0c-4,-4 -7,-10 -7,-17 0,-6 3,-12 7,-16 4,-5 10,-7 16,-7 7,0 13,2 17,7l0 0 0 0c4,4 7,10 7,16 0,4 -1,7 -2,10l29 22 0 0 0 0c6,5 11,9 14,15 3,5 5,11 5,21l0 0 0 91zm-70 -173c-3,0 -7,2 -10,4 -2,3 -4,6 -4,10 0,4 2,8 4,10l1 1c2,2 6,4 9,4 4,0 8,-2 11,-5 2,-2 4,-6 4,-10 0,-4 -2,-7 -4,-10l0 0c-3,-2 -7,-4 -11,-4zm188 173c0,3 -2,5 -5,5 -2,0 -5,-2 -5,-5l0 -91 0 0c0,-10 2,-16 6,-21 3,-6 8,-10 14,-15l0 0 0 0 29 -22c-1,-3 -2,-6 -2,-10 0,-6 2,-12 7,-16l0 0 0 0c4,-5 10,-7 16,-7 7,0 13,2 17,7l0 0c4,4 7,10 7,16 0,7 -3,13 -7,17l-1 0c-4,4 -9,7 -16,7 -6,0 -11,-3 -15,-6l-30 22c-5,4 -9,7 -12,11 -2,4 -3,9 -3,17l0 0 0 91zm70 -169c-2,-2 -6,-4 -10,-4 -4,0 -7,2 -10,4l0 0c-2,3 -4,6 -4,10 0,4 2,8 4,10l0 0c3,3 6,5 10,5 4,0 8,-2 10,-4l0 -1c3,-2 4,-6 4,-10 0,-4 -1,-7 -4,-10l0 0zm-124 -76l0 0c-3,-2 -6,-4 -10,-4 -4,0 -8,2 -10,4l0 0c-3,3 -4,6 -4,10 0,4 1,8 4,10l0 0c2,3 6,5 10,5 4,0 7,-2 10,-5l0 0c2,-2 4,-6 4,-10 0,-4 -2,-7 -4,-10z"/>
 </g>
</svg>
