<?xml version="1.0" encoding="UTF-8"?>
<!DOCTYPE svg PUBLIC "-//W3C//DTD SVG 1.1//EN" "http://www.w3.org/Graphics/SVG/1.1/DTD/svg11.dtd">
<!-- Creator: CorelDRAW X7 -->
<svg xmlns="http://www.w3.org/2000/svg" xml:space="preserve" width="15.4938mm" height="5.9266mm" version="1.1" style="shape-rendering:geometricPrecision; text-rendering:geometricPrecision; image-rendering:optimizeQuality; fill-rule:evenodd; clip-rule:evenodd"
viewBox="0 0 1549 593"
 xmlns:xlink="http://www.w3.org/1999/xlink">
 <defs>
  <style type="text/css">
   <![CDATA[
    .fil0 {fill:#EBEBEB}
   ]]>
  </style>
 </defs>
 <g id="Capa_x0020_1">
  <metadata id="CorelCorpID_0Corel-Layer"/>
  <path class="fil0" d="M841 491l0 12 10 0 1 0 0 0 0 22 0 1 0 0c-2,0 -4,1 -7,1 -2,0 -5,0 -8,0 -5,0 -9,0 -12,-2 -3,-1 -5,-3 -7,-5 -3,-5 -4,-15 -4,-28 0,-6 0,-12 1,-16 1,-5 2,-8 4,-10 1,-3 4,-5 7,-6 3,-1 6,-2 11,-2 8,0 18,1 28,2l1 -11 -5 0 0 0c-9,-2 -18,-3 -26,-3 -6,0 -12,1 -17,3 -4,2 -8,4 -10,8 -6,7 -8,19 -8,35 0,8 0,15 2,21 1,6 3,11 5,15 3,4 7,6 11,8 5,2 11,3 18,3 1,0 3,0 6,0 3,0 6,-1 9,-1 4,0 7,-1 10,-1 2,0 3,-1 5,-1l0 -45 -25 0zm-181 -126l-23 0c-23,-3 -34,-17 -34,-41l0 -101c0,-7 1,-13 3,-18 2,-5 5,-10 8,-13 8,-8 19,-11 34,-11 5,0 9,0 14,1 4,0 8,1 12,2l0 29c-4,-2 -8,-3 -12,-3 -4,-1 -9,-2 -13,-2 -4,0 -7,1 -10,2 -2,0 -5,1 -6,3 -2,1 -3,3 -3,5 -1,2 -1,5 -1,7l0 96c0,5 1,10 4,13l0 0c4,2 9,4 15,4 10,0 19,-2 27,-4l0 28c-4,1 -8,2 -13,3 -1,0 -1,0 -2,0zm-380 70c-20,27 -38,51 -48,65 60,-16 112,-23 173,-10 8,2 17,4 26,7 13,3 25,8 39,13 -19,0 -36,2 -54,4 -40,42 -96,68 -159,68 -96,0 -177,-62 -207,-148 -21,-1 -26,-3 -40,-3 71,-32 180,-47 270,4zm77 -223c24,-27 61,-89 48,-121 -1,-2 -3,-6 -4,0 -6,40 -36,97 -47,119 -4,7 -2,7 3,2zm-155 125c-58,2 -114,23 -162,60 -2,-12 -2,-23 -2,-35 0,-121 98,-220 219,-220 7,0 14,1 21,1 -3,7 -5,14 -8,22 -2,7 -4,14 -6,22 -18,4 -36,25 -53,56 -3,5 -2,11 6,11 14,-1 21,1 31,5 0,11 9,21 20,28l-1 3c-2,5 -5,15 1,18 2,1 6,1 10,-2 2,-3 5,-8 6,-10l1 -1c13,5 27,6 34,1 9,6 15,11 22,22 5,7 10,5 13,-1 15,-32 22,-59 15,-75 5,-6 9,-12 14,-17 7,-10 13,-19 19,-28 46,40 75,99 75,165 0,39 -10,75 -27,107 -40,-57 -89,-95 -142,-115 6,-13 8,-25 1,-40 -1,22 -12,48 -37,59 7,-35 -28,-36 -43,26 -24,-41 -20,-92 16,-123 -28,14 -41,36 -43,61zm277 179l0 0zm-93 -475l0 0zm-291 159c-41,41 -67,99 -67,162 0,6 0,12 1,18 0,4 0,9 1,13l1 9 -26 21c-4,4 -5,5 -5,9 0,3 2,5 4,7 1,1 3,1 5,2 8,0 13,1 20,1l14 2c16,42 45,79 82,105 36,26 81,42 129,43l7 0c31,-1 60,-7 87,-19 27,-12 52,-29 73,-50 7,-1 15,-2 23,-2 9,-1 18,-1 27,-1 4,0 7,-1 8,-4 2,-3 2,-7 -1,-11l-22 -28 5 -9c8,-15 14,-31 19,-48 4,-19 7,-38 7,-58 0,-34 -7,-66 -20,-95 -14,-30 -34,-56 -59,-78l0 0c12,-22 20,-43 23,-64 3,-22 0,-45 -13,-68 0,0 0,-1 -1,-1l15 -32c1,-4 2,-7 2,-10 0,-5 -2,-9 -6,-11l-1 0c-4,-3 -9,-3 -13,0 -3,2 -5,4 -7,8l-19 30c-1,0 -1,0 -2,0 -32,4 -56,18 -74,39 -13,15 -23,33 -31,54 -1,0 -2,0 -3,0 -3,-1 -7,-1 -10,-1 -4,0 -7,0 -11,0 -63,0 -120,25 -162,67zm302 -13c-18,31 -42,58 -66,84l-4 4c-3,3 -6,6 -9,9 -7,8 -12,6 -20,4 -2,-1 -5,-2 -7,-3 2,-4 5,-9 8,-14 3,-7 7,-14 10,-21 2,-5 4,-10 6,-15 1,-3 2,-5 3,-7 2,-4 1,-8 -3,-10 -2,-1 -3,-1 -5,-1 -4,1 -6,5 -9,8 -2,4 -5,8 -8,13 -4,6 -7,13 -11,19 -3,7 -6,13 -9,19 -3,-1 -5,-3 -7,-5 -9,-7 -8,-14 -6,-24 5,-27 11,-54 19,-80 21,-66 49,-109 108,-117 -5,10 18,21 23,12 22,42 13,82 -13,125zm26 -167l-16 35c-2,5 -15,-1 -12,-7l20 -32c3,-5 5,-6 8,-5 2,1 2,4 0,9zm466 220l0 -17c0,-27 -12,-41 -36,-41l-46 0 0 182 48 0c24,0 36,-13 36,-41l0 -18c0,-9 -2,-16 -5,-21 -2,-6 -6,-9 -12,-11l-1 -1 1 0c5,-3 9,-6 11,-12 3,-5 4,-12 4,-20zm-56 -32l17 0c4,0 8,2 11,4 2,3 3,7 3,13l0 17c0,5 -1,10 -3,12 -3,3 -7,5 -11,5l-17 0 0 0 0 -1 0 -49 0 -1 0 0zm33 95l0 18c0,11 -5,17 -15,17l-18 0 0 0 0 -1 0 -50 0 -1 0 0 18 0c5,0 9,2 11,4 3,3 4,8 4,13zm107 16l7 45 24 0 -30 -182 -36 0 -31 182 25 0 6 -45 1 0 0 0 34 0 0 0 0 0zm-5 -27l-25 0 0 0 0 0 12 -82 1 -3 0 3 13 82 0 0 -1 0zm145 -110l-25 0 0 63c0,11 0,22 0,32 1,10 1,19 2,28l0 0c1,3 1,6 1,7 0,2 0,3 0,4l0 3 -1 -3c0,-1 0,-2 0,-3 -1,-2 -1,-4 -2,-7 -1,-3 -2,-6 -3,-10 -1,-4 -2,-8 -3,-13 -2,-5 -5,-16 -11,-33 -5,-17 -12,-40 -21,-68l-26 0 0 182 24 0 0 -64c0,-12 0,-23 0,-33 -1,-10 -2,-19 -2,-27 -1,-6 -2,-10 -2,-10l0 -4 1 4 2 5 3 13c2,5 6,18 12,37 6,20 14,46 25,79l26 0 0 -182zm143 27l0 -27 -81 0 0 27 27 0 1 0 0 0 0 155 25 0 0 -155 0 0 1 0 27 0zm89 -27l-71 0 0 182 71 0 0 -27 -45 0 0 0 0 0 0 -51 0 0 0 0 39 0 0 -28 -39 0 0 0 0 0 0 -49 0 0 0 0 45 0 0 -27zm204 0l-25 0 0 78 0 1 -1 0 -36 0 -1 0 0 -1 0 -78 -25 0 0 182 25 0 0 -75 0 0 1 0 36 0 1 0 0 0 0 75 25 0 0 -182zm-126 183l-23 0c-22,-3 -34,-17 -34,-41l0 -101c0,-7 1,-13 3,-18 2,-5 5,-10 8,-13 8,-8 19,-11 34,-11 5,0 10,0 14,1 4,0 8,1 12,2l0 29c-4,-2 -8,-3 -12,-3 -4,-1 -8,-2 -12,-2 -4,0 -8,1 -11,2 -2,0 -4,1 -6,3 -1,1 -2,3 -3,5 -1,2 -1,5 -1,7l0 96c0,5 1,10 5,13 3,2 8,4 14,4 11,0 19,-2 27,-4l0 28c-4,1 -8,2 -13,3 0,0 -1,0 -2,0zm-716 -10c-3,-4 -6,-9 -8,-15l0 0c-1,-5 -2,-11 -2,-18l0 -140 25 0 0 138c0,6 1,11 4,14 3,3 7,5 12,5 6,0 10,-2 13,-5 2,-3 4,-8 4,-14l0 -138 25 0 0 140c0,7 -1,13 -3,18 -1,6 -4,11 -8,15 -13,16 -48,16 -62,0zm229 183l0 -32 0 -1 0 0 22 0 0 0 0 0 13 33 16 0 -15 -36 0 0 0 0c5,-2 9,-6 11,-10l0 0c2,-4 4,-10 4,-16 0,-19 -10,-29 -31,-29l-34 0 0 91 14 0zm32 -75c3,3 4,7 4,13 0,3 0,5 0,7 -1,2 -2,4 -3,6 -2,1 -3,2 -5,3 -2,1 -5,1 -7,1l-21 0 0 0 0 0 0 -33 0 -1 0 0 20 0c6,0 10,2 12,4zm95 62c-3,-1 -5,-3 -7,-6 -1,-3 -2,-6 -3,-11 -1,-4 -1,-9 -1,-15 0,-6 0,-11 1,-16 1,-4 2,-8 4,-11l0 0c1,-2 3,-5 6,-6 3,-1 7,-2 11,-2 4,0 8,1 11,2 3,1 5,4 7,6 1,3 2,7 3,11 1,5 1,10 1,16 0,6 0,11 -1,16 0,4 -2,8 -3,10 -2,3 -4,5 -7,6 -3,1 -6,2 -11,2 -4,0 -8,-1 -11,-2zm29 11c4,-2 8,-4 11,-8 2,-4 4,-8 6,-14 1,-6 2,-13 2,-21 0,-8 -1,-15 -2,-21 -2,-6 -4,-11 -6,-15 -3,-3 -7,-6 -12,-8 -4,-2 -10,-3 -17,-3 -7,0 -12,1 -17,3 -5,2 -9,5 -11,8 -3,4 -5,9 -6,15 -2,6 -2,13 -2,21 0,8 0,15 2,21 1,6 3,10 6,14 2,4 6,6 11,8 5,2 10,3 17,3 7,0 13,-1 18,-3zm106 -9c-13,0 -19,-6 -19,-18l0 -62 -14 0 0 62c0,5 1,10 2,13 2,4 4,7 6,10 3,2 7,4 11,5 4,1 9,2 14,2 6,0 10,-1 15,-2 4,-1 7,-3 10,-5 3,-3 5,-6 6,-10 2,-3 2,-8 2,-13l0 -62 -14 0 0 62c0,6 -1,11 -4,14 -4,3 -8,4 -15,4zm106 -18l18 0c6,0 10,0 14,-2 4,-1 7,-3 9,-6 3,-3 5,-6 6,-10 1,-4 2,-8 2,-13 0,-11 -3,-18 -8,-23 -5,-5 -12,-8 -23,-8l-32 0 0 91 13 0 0 -28 0 -1 1 0zm18 -12l-18 0 -1 0 0 0 0 -37 0 -1 1 0 18 0c3,0 6,1 8,1 2,1 4,2 5,4 1,1 2,3 3,5 1,3 1,5 1,9 0,6 -2,11 -4,14 -3,4 -7,5 -13,5z"/>
 </g>
</svg>
