<?xml version="1.0" encoding="UTF-8"?>
<!DOCTYPE svg PUBLIC "-//W3C//DTD SVG 1.1//EN" "http://www.w3.org/Graphics/SVG/1.1/DTD/svg11.dtd">
<!-- Creator: CorelDRAW X7 -->
<svg xmlns="http://www.w3.org/2000/svg" xml:space="preserve" width="6.0958mm" height="1.7778mm" version="1.1" style="shape-rendering:geometricPrecision; text-rendering:geometricPrecision; image-rendering:optimizeQuality; fill-rule:evenodd; clip-rule:evenodd"
viewBox="0 0 610 178"
 xmlns:xlink="http://www.w3.org/1999/xlink">
 <defs>
  <style type="text/css">
   <![CDATA[
    .fil2 {fill:#D17D0E}
    .fil0 {fill:#FFB90A}
    .fil3 {fill:#A5A7AC;fill-rule:nonzero}
    .fil1 {fill:#D17D0E;fill-rule:nonzero}
   ]]>
  </style>
 </defs>
 <g id="Capa_x0020_1">
  <metadata id="CorelCorpID_0Corel-Layer"/>
  <g id="_34750518784">
   <g>
    <path class="fil0" d="M107 70l-14 -43 -14 43c-1,4 -4,6 -8,6l-45 0 36 27c3,2 5,6 4,9l-14 43 36 -26c3,-2 7,-3 10,0l37 26 -14 -42c-1,-4 0,-8 3,-10l36 -27 -44 0c-4,0 -8,-2 -9,-6z"/>
    <path class="fil1" d="M101 6l0 0 0 0 18 56 58 0c5,0 8,4 8,8 0,3 -1,5 -3,6l0 0 -48 35 19 56c1,4 -1,8 -5,10 -3,0 -6,0 -8,-2l-47 -34 -47 34c-4,3 -9,2 -11,-1 -2,-2 -2,-5 -1,-7l0 0 18 -56 -48 -35c-3,-2 -4,-7 -1,-11 1,-2 4,-3 6,-3l59 0 18 -56c1,-3 4,-5 7,-5l0 0c1,0 2,0 3,0 2,1 4,3 5,5zm5 66l-13 -38 -12 38 0 0c-1,4 -4,6 -8,6l-40 0 33 23 0 0c2,2 4,6 3,9l-13 38 32 -23c3,-2 7,-2 10,0l32 23 -12 -38c-1,-3 0,-6 3,-9l32 -23 -40 0c-3,0 -6,-2 -7,-6z"/>
   </g>
   <g>
    <path class="fil2" d="M320 70l-14 -43 -14 43c-1,4 -4,6 -8,6l-45 0 37 27c3,2 4,6 3,9l-14 43 36 -26c3,-2 7,-3 10,0l37 26 -14 -42c-1,-4 0,-8 3,-10l37 -27 -45 0c-4,0 -8,-2 -9,-6z"/>
    <path class="fil1" d="M314 6l0 0 0 0 18 56 59 0c4,0 7,4 7,8 0,3 -1,5 -3,6l0 0 -47 35 18 56c1,4 -1,8 -5,10 -3,0 -6,0 -8,-2l-47 -34 -47 34c-4,3 -9,2 -11,-1 -2,-2 -2,-5 -1,-7l0 0 18 -56 -48 -35c-3,-2 -4,-7 -1,-11 1,-2 4,-3 7,-3l58 0 18 -56c1,-3 4,-5 7,-5l0 0c1,0 2,0 3,0 2,1 4,3 5,5zm5 66l-13 -38 -12 38 0 0c-1,4 -4,6 -8,6l-40 0 33 23 0 0c3,2 4,6 3,9l-13 38 33 -23c2,-2 6,-2 9,0l32 23 -12 -38c-1,-3 0,-6 3,-9l32 -23 -40 0c-3,0 -6,-2 -7,-6z"/>
   </g>
   <path class="fil3" d="M524 6l0 0 0 0 18 56 59 0c4,0 8,4 8,8 0,3 -2,5 -4,6l0 0 -47 35 18 56c1,4 -1,8 -5,10 -3,0 -6,0 -8,-2l-47 -34 -47 34c-4,3 -8,2 -11,-1 -2,-2 -2,-5 -1,-7l0 0 18 -56 -47 -35c-4,-2 -5,-7 -2,-11 1,-2 4,-3 7,-3l58 0 18 -56c1,-3 4,-5 7,-5l1 0c0,0 1,0 2,0 2,1 4,3 5,5zm5 66l-13 -38 -12 38 0 0c-1,4 -4,6 -7,6l-41 0 33 23 0 0c3,2 4,6 3,9l-13 38 33 -23c2,-2 6,-2 9,0l33 23 -13 -38c-1,-3 0,-6 3,-9l33 -23 -40 0c-4,0 -7,-2 -8,-6z"/>
  </g>
 </g>
</svg>
