<?xml version="1.0" encoding="UTF-8"?>
<!DOCTYPE svg PUBLIC "-//W3C//DTD SVG 1.1//EN" "http://www.w3.org/Graphics/SVG/1.1/DTD/svg11.dtd">
<!-- Creator: CorelDRAW X7 -->
<svg xmlns="http://www.w3.org/2000/svg" xml:space="preserve" width="1.7778mm" height="5.8418mm" version="1.1" style="shape-rendering:geometricPrecision; text-rendering:geometricPrecision; image-rendering:optimizeQuality; fill-rule:evenodd; clip-rule:evenodd"
viewBox="0 0 178 584"
 xmlns:xlink="http://www.w3.org/1999/xlink">
 <defs>
  <style type="text/css">
   <![CDATA[
    .fil2 {fill:#D17D0E}
    .fil0 {fill:#FFB90A}
    .fil3 {fill:#A5A7AC;fill-rule:nonzero}
    .fil1 {fill:#D17D0E;fill-rule:nonzero}
   ]]>
  </style>
 </defs>
 <g id="Capa_x0020_1">
  <metadata id="CorelCorpID_0Corel-Layer"/>
  <g id="_34750520544">
   <g>
    <path class="fil0" d="M103 70l-14 -43 -14 43c-1,3 -4,6 -8,6l-45 0 36 26c3,3 5,7 3,10l-14 43 37 -26c3,-3 7,-3 10,0l37 26 -14 -42c-2,-4 -1,-8 3,-11l36 -26 -44 0c-4,0 -8,-2 -9,-6z"/>
    <path class="fil1" d="M96 6l0 0 0 0 18 56 59 0c5,0 8,3 8,8 0,2 -1,5 -3,6l0 0 -48 35 18 55c2,5 0,9 -5,10 -2,1 -5,1 -7,-1l-47 -34 -48 34c-3,3 -8,2 -11,-2 -1,-2 -1,-4 -1,-7l0 0 19 -55 -48 -35c-4,-2 -4,-7 -2,-11 2,-2 5,-3 7,-3l58 0 18 -56c2,-3 4,-5 8,-5l0 0c1,0 2,0 2,0 3,1 5,3 5,5zm5 66l-12 -38 -12 38 0 0c-1,3 -4,6 -8,6l-40 0 32 23 0 0c3,2 4,6 3,9l-12 38 32 -23c3,-2 7,-3 10,0l32 23 -12 -38c-2,-3 -1,-7 2,-9l33 -23 -40 0c-3,0 -7,-2 -8,-6z"/>
   </g>
   <g>
    <path class="fil2" d="M103 273l-14 -43 -14 43c-1,4 -4,7 -8,7l-45 -1 36 27c3,2 5,6 3,10l-14 43 37 -27c3,-2 7,-2 10,0l37 27 -14 -43c-2,-4 -1,-8 3,-10l36 -27 -44 1c-4,0 -8,-3 -9,-7z"/>
    <path class="fil1" d="M96 210l0 0 0 0 18 55 59 0c5,0 8,4 8,8 0,3 -1,5 -3,7l0 0 -48 34 18 56c2,4 0,8 -5,10 -2,1 -5,0 -7,-2l-47 -34 -48 35c-3,2 -8,1 -11,-2 -1,-2 -1,-5 -1,-7l0 0 19 -56 -48 -34c-4,-3 -4,-8 -2,-11 2,-3 5,-4 7,-4l58 0 18 -55c2,-4 4,-6 8,-6l0 0c1,0 2,0 2,0 3,1 5,3 5,6zm5 66l-12 -39 -12 39 0 0c-1,3 -4,5 -8,5l-40 0 32 24 0 0c3,2 4,5 3,8l-12 39 32 -24c3,-2 7,-2 10,0l32 24 -12 -38c-2,-4 -1,-7 2,-9l33 -24 -40 0c-3,0 -7,-2 -8,-5z"/>
   </g>
   <path class="fil3" d="M96 413l0 0 0 0 18 56 59 0c5,0 8,3 8,8 0,2 -1,4 -3,6l0 0 -48 34 18 56c2,4 0,9 -5,10 -2,1 -5,0 -7,-1l-47 -35 -48 35c-3,3 -8,2 -11,-2 -1,-2 -1,-4 -1,-7l0 0 19 -56 -48 -34c-4,-3 -4,-8 -2,-11 2,-2 5,-3 7,-3l58 0 18 -56c2,-3 4,-5 8,-5l0 0c1,0 2,0 2,0 3,1 5,3 5,5zm5 66l-12 -38 -12 38 0 0c-1,3 -4,6 -8,6l-40 -1 32 24 0 0c3,2 4,5 3,9l-12 38 32 -24c3,-2 7,-2 10,0l32 24 -12 -38c-2,-3 -1,-7 2,-9l33 -24 -40 1c-3,0 -7,-2 -8,-6z"/>
  </g>
 </g>
</svg>
