<?xml version="1.0" encoding="UTF-8"?>
<!DOCTYPE svg PUBLIC "-//W3C//DTD SVG 1.1//EN" "http://www.w3.org/Graphics/SVG/1.1/DTD/svg11.dtd">
<!-- Creator: CorelDRAW X7 -->
<svg xmlns="http://www.w3.org/2000/svg" xml:space="preserve" width="13.6312mm" height="4.8258mm" version="1.1" style="shape-rendering:geometricPrecision; text-rendering:geometricPrecision; image-rendering:optimizeQuality; fill-rule:evenodd; clip-rule:evenodd"
viewBox="0 0 1363 483"
 xmlns:xlink="http://www.w3.org/1999/xlink">
 <defs>
  <style type="text/css">
   <![CDATA[
    .fil0 {fill:#EBEBEB}
   ]]>
  </style>
 </defs>
 <g id="Capa_x0020_1">
  <metadata id="CorelCorpID_0Corel-Layer"/>
  <path class="fil0" d="M227 355c-16,22 -30,41 -38,53 48,-13 90,-19 140,-9 7,2 15,4 22,6 11,3 20,7 32,11 -16,0 -30,1 -44,3 -33,34 -79,56 -130,56 -78,0 -145,-51 -170,-121 -17,-1 -21,-2 -32,-3 58,-26 147,-38 220,4zm303 -18l-22 0c-21,-3 -31,-16 -31,-39l0 -95c0,-6 1,-12 3,-16 1,-5 4,-9 7,-13 7,-7 18,-10 32,-10 4,0 9,0 13,1 4,0 8,1 11,2l0 27c-4,-1 -7,-2 -11,-3 -4,-1 -8,-1 -12,-1 -3,0 -7,0 -9,1 -3,1 -5,2 -6,3 -2,1 -3,3 -3,5 -1,2 -1,4 -1,7l0 89c0,6 1,10 4,12l0 0c3,3 8,4 14,4 10,0 18,-1 25,-4l0 27c-4,1 -8,2 -12,2 0,0 -1,1 -2,1zm215 -118l0 -15c0,-26 -11,-39 -33,-39l-43 0 0 171 44 0c22,0 33,-13 33,-39l0 -17c0,-8 -1,-14 -3,-20 -3,-5 -7,-8 -12,-10l-1 0 1 -1c5,-2 8,-5 11,-10 2,-5 3,-12 3,-20zm-52 -29l15 0c5,0 8,1 10,4 3,2 4,6 4,11l0 16c0,5 -1,9 -4,12 -2,3 -5,4 -10,4l-15 0 -1 0 0 0 0 -47 0 0 1 0zm30 89l0 17c0,10 -4,15 -14,15l-16 0 -1 0 0 0 0 -48 0 0 1 0 16 0c5,0 8,1 11,4 2,2 3,6 3,12zm101 14l6 43 23 0 -28 -171 -34 0 -29 171 23 0 6 -43 0 0 1 0 31 0 1 0 0 0zm-5 -25l-23 0 -1 0 0 0 12 -76 0 -3 1 3 12 76 0 0 -1 0zm136 -103l-24 0 0 59c0,10 0,20 1,30 0,9 1,18 2,27l0 0c0,3 0,5 1,6 0,2 0,3 0,3l0 3 -1 -3c0,0 0,-1 -1,-2 0,-2 -1,-4 -1,-7 -1,-2 -2,-5 -3,-9 -1,-3 -2,-8 -3,-12 -2,-5 -5,-16 -10,-31 -5,-16 -12,-37 -20,-64l-25 0 0 171 23 0 0 -60c0,-11 0,-22 0,-31 -1,-10 -1,-18 -2,-26 -1,-6 -1,-9 -1,-9l0 -3 1 3 1 5 3 12c2,5 5,17 11,35 6,18 14,43 24,74l24 0 0 -171zm-381 162c-3,-4 -5,-8 -7,-13l0 0c-2,-6 -2,-11 -2,-18l0 -131 23 0 0 130c0,5 2,10 4,13 3,3 7,4 12,4 5,0 9,-1 11,-4 3,-3 4,-8 4,-13l0 -130 24 0 0 131c0,7 -1,12 -3,18 -1,5 -4,9 -7,13 -13,15 -46,15 -59,0zm515 -137l0 -25 -76 0 0 25 26 0 0 0 0 1 0 145 24 0 0 -145 0 -1 1 0 25 0zm84 -25l-66 0 0 171 66 0 0 -25 -42 0 -1 0 0 -1 0 -47 0 -1 1 0 36 0 0 -25 -36 0 -1 0 0 -1 0 -45 0 -1 1 0 42 0 0 -25zm191 0l-24 0 0 74 0 0 0 0 -34 0 -1 0 0 0 0 -74 -24 0 0 171 24 0 0 -71 0 0 1 0 34 0 0 0 0 0 0 71 24 0 0 -171zm-118 172l-22 0c-21,-3 -31,-16 -31,-39l0 -95c0,-6 1,-12 2,-16 2,-5 5,-9 8,-13 7,-7 17,-10 32,-10 4,0 9,0 13,1 4,0 7,1 11,2l0 27c-4,-1 -8,-2 -11,-3 -4,-1 -8,-1 -12,-1 -4,0 -7,0 -9,1 -3,1 -5,2 -6,3 -2,1 -3,3 -4,5 0,2 -1,4 -1,7l0 89c0,6 2,10 5,12 3,3 8,4 14,4 9,0 18,-1 25,-4l0 27c-4,1 -8,2 -12,2 -1,0 -1,1 -2,1zm-956 -165c20,-22 50,-72 40,-98 -1,-2 -3,-5 -4,0 -4,32 -29,79 -38,97 -3,5 -2,6 2,1zm-126 103c-47,2 -93,18 -132,48 -2,-9 -3,-18 -3,-28 0,-99 81,-180 180,-180 6,0 11,1 17,1 -2,6 -4,12 -6,18 -2,6 -4,12 -6,18 -14,3 -29,20 -43,46 -3,4 -2,9 5,8 11,0 17,2 26,5 -1,9 7,17 16,23l-1 2c-2,5 -4,12 0,15 2,1 6,1 8,-2 3,-3 5,-6 6,-8l0 -1c11,4 22,5 28,1 8,5 12,9 18,18 4,6 8,4 11,-1 12,-26 18,-48 12,-61 4,-5 8,-10 11,-14 6,-8 12,-16 16,-23 38,33 62,81 62,135 0,32 -9,61 -23,87 -33,-46 -73,-77 -115,-93 4,-11 6,-21 0,-34 -1,18 -10,40 -30,49 5,-29 -23,-29 -35,21 -20,-33 -16,-75 13,-100 -23,11 -33,29 -35,50zm226 146l0 0zm-76 -388l0 0zm-238 129c-34,34 -54,81 -54,133 0,5 0,10 0,15 0,3 1,7 1,10l1 7 -21 18c-3,3 -4,4 -4,7 0,2 1,4 3,6 1,0 3,1 4,1 7,1 11,1 17,1l11 2c13,35 36,65 67,86 30,21 66,34 105,35l6 0c25,-1 49,-6 71,-16 22,-9 43,-23 60,-40 6,-1 12,-2 18,-2 8,-1 15,-1 23,-1 2,0 5,-1 6,-3 2,-3 2,-6 -1,-9l-18 -23 4 -7c7,-13 12,-26 16,-40 3,-15 5,-31 5,-47 0,-28 -5,-54 -16,-77 -11,-25 -28,-47 -48,-64l0 -1c10,-17 16,-34 19,-51 2,-19 -1,-37 -11,-56 0,0 0,-1 0,-1l11 -26c2,-3 2,-6 2,-8 0,-4 -2,-7 -5,-9l0 -1c-4,-2 -8,-1 -11,1 -2,1 -4,3 -6,6l-15 25c-1,0 -1,0 -2,0 -26,3 -46,14 -61,32 -10,12 -18,27 -25,44 -1,-1 -1,-1 -2,-1 -3,0 -6,0 -8,0 -3,0 -6,0 -9,0 -52,0 -99,21 -133,54zm247 -10c-14,26 -34,47 -54,69l-3 3c-3,3 -5,5 -8,8 -5,6 -9,4 -16,2 -2,0 -4,-1 -6,-2 2,-4 5,-8 7,-12 3,-5 5,-11 8,-17 2,-4 4,-8 5,-12 1,-2 2,-4 3,-6 1,-3 0,-6 -3,-8 -1,-1 -3,-1 -4,-1 -4,1 -5,4 -7,7 -2,3 -5,7 -7,11 -3,5 -6,10 -9,15 -2,6 -5,11 -7,16 -2,-1 -5,-3 -6,-5 -7,-5 -7,-11 -5,-19 4,-22 9,-44 16,-65 17,-54 40,-90 88,-95 -4,8 15,16 18,9 19,34 11,67 -10,102zm21 -136l-13 28c-1,4 -12,-1 -10,-5l17 -27c2,-3 4,-5 6,-4 2,1 2,4 0,8z"/>
 </g>
</svg>
