<?xml version="1.0" encoding="UTF-8"?>
<!DOCTYPE svg PUBLIC "-//W3C//DTD SVG 1.1//EN" "http://www.w3.org/Graphics/SVG/1.1/DTD/svg11.dtd">
<!-- Creator: CorelDRAW X7 -->
<svg xmlns="http://www.w3.org/2000/svg" xml:space="preserve" width="13.3772mm" height="1.3546mm" version="1.1" style="shape-rendering:geometricPrecision; text-rendering:geometricPrecision; image-rendering:optimizeQuality; fill-rule:evenodd; clip-rule:evenodd"
viewBox="0 0 1338 135"
 xmlns:xlink="http://www.w3.org/1999/xlink">
 <defs>
  <style type="text/css">
   <![CDATA[
    .fil0 {fill:#17202F}
   ]]>
  </style>
 </defs>
 <g id="Capa_x0020_1">
  <metadata id="CorelCorpID_0Corel-Layer"/>
  <g id="_34938821984">
   <path class="fil0" d="M605 50l0 0zm110 79l-11 -44 35 -29c0,-1 1,-2 1,-3 0,-2 -1,-3 -3,-3l-46 -3 -17 -43c0,-1 -1,-1 -2,-2 0,0 0,0 -1,0 -1,0 -2,1 -3,2l-17 43 -46 3c-1,0 -1,0 -2,1 -1,1 -1,3 0,5l36 29 -12 44c0,1 0,2 1,3 1,1 3,2 4,1l39 -25 39 25c0,0 1,1 2,0 2,0 3,-2 3,-4z"/>
   <rect class="fil0" x="782" y="78" width="556.32" height="9.57"/>
   <rect class="fil0" x="-1" y="78" width="556.32" height="9.57"/>
  </g>
 </g>
</svg>
