<?xml version="1.0" encoding="UTF-8"?>
<!DOCTYPE svg PUBLIC "-//W3C//DTD SVG 1.1//EN" "http://www.w3.org/Graphics/SVG/1.1/DTD/svg11.dtd">
<!-- Creator: CorelDRAW X7 -->
<svg xmlns="http://www.w3.org/2000/svg" xml:space="preserve" width="5.8418mm" height="5.8418mm" version="1.1" style="shape-rendering:geometricPrecision; text-rendering:geometricPrecision; image-rendering:optimizeQuality; fill-rule:evenodd; clip-rule:evenodd"
viewBox="0 0 584 584"
 xmlns:xlink="http://www.w3.org/1999/xlink">
 <defs>
  <style type="text/css">
   <![CDATA[
    .str0 {stroke:#CCCCCC;stroke-width:7.62}
    .fil2 {fill:none}
    .fil3 {fill:#CCCCCC}
    .fil1 {fill:#E6E6E6}
    .fil0 {fill:white}
    .fil4 {fill:white;fill-opacity:0.749020}
   ]]>
  </style>
 </defs>
 <g id="Capa_x0020_1">
  <metadata id="CorelCorpID_0Corel-Layer"/>
  <g id="_34867461680">
   <g>
    <circle class="fil0" cx="302" cy="301" r="284"/>
    <circle class="fil0" cx="302" cy="301" r="284"/>
   </g>
   <g>
    <circle class="fil1" cx="283" cy="284" r="284"/>
    <circle class="fil2 str0" cx="283" cy="284" r="284"/>
   </g>
   <path class="fil3" d="M35 204c40,-108 144,-185 266,-185 77,0 147,31 198,81 -6,-7 -12,-13 -18,-19 -51,-50 -121,-81 -198,-81 -157,0 -284,127 -284,284 0,79 33,151 85,202 -42,-49 -67,-113 -67,-183 0,-35 6,-68 18,-99z"/>
   <g>
    <circle class="fil3" cx="296" cy="188" r="103"/>
    <path class="fil3" d="M105 388c35,70 108,117 191,117 83,0 155,-47 190,-117 -81,-104 -307,-109 -381,0z"/>
   </g>
   <g>
    <path class="fil4" d="M287 78c57,0 103,46 103,103 0,58 -46,104 -103,104 -57,0 -103,-46 -103,-104 0,-57 46,-103 103,-103z"/>
    <path class="fil4" d="M96 382c36,69 108,117 191,117 83,0 155,-48 190,-117 -81,-104 -307,-109 -381,0z"/>
   </g>
  </g>
 </g>
</svg>
