<?xml version="1.0" encoding="UTF-8"?>
<!DOCTYPE svg PUBLIC "-//W3C//DTD SVG 1.1//EN" "http://www.w3.org/Graphics/SVG/1.1/DTD/svg11.dtd">
<!-- Creator: CorelDRAW X7 -->
<svg xmlns="http://www.w3.org/2000/svg" xml:space="preserve" width="15.409mm" height="5.862mm" version="1.1" style="shape-rendering:geometricPrecision; text-rendering:geometricPrecision; image-rendering:optimizeQuality; fill-rule:evenodd; clip-rule:evenodd"
viewBox="0 0 1541 586"
 xmlns:xlink="http://www.w3.org/1999/xlink">
 <defs>
  <style type="text/css">
   <![CDATA[
    .fil1 {fill:#072D4F}
    .fil2 {fill:#1E5673}
    .fil3 {fill:#249DB0}
    .fil0 {fill:#620E0E}
    .fil7 {fill:#ABAAA8}
    .fil6 {fill:#C6C3C1}
    .fil4 {fill:#D3D1CF}
    .fil5 {fill:#E4E3E1}
    .fil8 {fill:white}
    .fil9 {fill:black;fill-opacity:0.078431}
   ]]>
  </style>
 </defs>
 <g id="Capa_x0020_1">
  <metadata id="CorelCorpID_0Corel-Layer"/>
  <g id="_1066276503840">
   <g>
    <path class="fil0" d="M837 486l0 12 11 0 0 0 0 1 0 22 0 0 0 0c-2,1 -4,1 -6,1 -3,0 -6,0 -9,0 -4,0 -8,0 -11,-2 -3,-1 -6,-3 -7,-5 -3,-5 -5,-14 -5,-27 0,-7 1,-12 2,-16 0,-5 2,-8 3,-11 2,-2 4,-4 7,-5 3,-2 7,-2 11,-2 8,0 18,0 28,2l1 -11 -5 -1 0 0c-9,-1 -18,-2 -26,-2 -6,0 -12,1 -16,2 -5,2 -8,5 -11,9 -5,7 -8,19 -8,35 0,8 1,15 2,21 1,5 3,10 6,14 2,4 6,7 11,8 4,2 10,3 17,3 2,0 4,0 6,0 3,0 6,-1 10,-1 3,0 6,-1 9,-1 2,0 4,0 5,-1l0 -45 -25 0zm95 47l0 -32 0 -1 0 0 21 0 1 0 0 1 13 32 15 0 -15 -35 0 -1 0 0c5,-2 9,-5 11,-10l0 0c3,-4 4,-9 4,-16 0,-18 -10,-28 -30,-28l-34 0 0 90 14 0zm32 -74c3,3 4,7 4,13 0,2 0,4 -1,7 -1,2 -2,3 -3,5 -1,2 -3,3 -5,4 -2,0 -4,1 -7,1l-20 0 0 0 0 -1 0 -33 0 0 0 0 20 0c5,0 9,1 12,4zm94 61c-3,-1 -5,-3 -7,-6 -1,-2 -2,-6 -3,-10 -1,-5 -1,-10 -1,-16 0,-6 0,-11 1,-15 1,-5 2,-8 3,-11l0 0c2,-3 4,-5 7,-6 3,-2 7,-2 11,-2 4,0 8,0 11,2 3,1 5,3 6,6 2,3 3,6 4,11 1,4 1,9 1,15 0,7 0,12 -1,16 -1,4 -2,8 -4,10 -1,3 -3,5 -6,6 -3,2 -7,2 -11,2 -4,0 -8,0 -11,-2zm28 11c5,-1 8,-4 11,-8 3,-3 5,-8 6,-14 2,-6 2,-13 2,-21 0,-8 0,-15 -2,-20 -1,-6 -3,-11 -6,-15 -3,-4 -6,-7 -11,-8 -5,-2 -10,-3 -17,-3 -7,0 -13,1 -17,3 -5,1 -9,4 -11,8 -3,4 -5,9 -6,15 -2,6 -2,12 -2,20 0,8 0,15 2,21 1,6 3,11 6,14 2,4 6,7 11,8 4,2 10,3 17,3 7,0 12,-1 17,-3zm106 -9c-13,0 -19,-6 -19,-18l0 -61 -14 0 0 61c0,5 1,10 2,14 2,3 4,7 6,9 3,2 7,4 11,5 4,2 9,2 14,2 6,0 10,0 14,-2 5,-1 8,-3 11,-5 2,-2 4,-6 6,-9 1,-4 2,-9 2,-14l0 -61 -14 0 0 61c0,6 -1,11 -5,14 -3,3 -8,4 -14,4zm105 -17l19 0c5,0 9,-1 13,-2 4,-2 7,-4 9,-6 3,-3 5,-6 6,-10 1,-4 2,-9 2,-14 0,-10 -3,-17 -8,-22 -5,-5 -12,-8 -22,-8l-33 0 0 90 14 0 0 -28 0 0 0 0zm18 -12l-18 0 0 0 0 -1 0 -37 0 0 0 0 18 0c3,0 6,0 8,1 2,1 3,2 5,3 1,2 2,4 3,6 0,2 1,5 1,8 0,7 -2,12 -4,15 -3,3 -7,5 -13,5z"/>
    <path class="fil1" d="M657 361l-22 0c-23,-3 -34,-16 -34,-41l0 -100c0,-7 1,-13 3,-18 2,-5 4,-9 8,-13 7,-7 19,-11 33,-11 5,0 10,0 14,1 5,1 9,2 12,3l0 28c-4,-1 -8,-2 -12,-3 -4,-1 -8,-1 -12,-1 -4,0 -7,0 -10,1 -3,1 -5,2 -6,3 -2,2 -3,3 -4,5 0,2 -1,5 -1,8l0 94c0,6 2,10 5,13l0 0c3,3 8,4 15,4 10,0 19,-1 26,-4l0 28c-4,1 -8,2 -12,3 -1,0 -2,0 -3,0zm228 -124l0 -17c0,-27 -12,-41 -35,-41l-46 0 0 182 47 0c24,0 35,-14 35,-41l0 -18c0,-9 -1,-16 -4,-21 -2,-6 -6,-9 -12,-11l-1 -1 1 0c5,-3 9,-6 11,-12 3,-5 4,-12 4,-20zm-55 -31l16 0c5,0 8,1 11,4 2,3 4,7 4,12l0 17c0,5 -2,10 -4,12 -3,3 -6,5 -11,5l-16 0 -1 0 0 -1 0 -49 0 0 1 0zm32 94l0 18c0,11 -5,16 -15,16l-17 0 -1 0 0 0 0 -51 0 0 1 0 17 0c5,0 9,1 11,4 3,3 4,7 4,13zm106 16l8 45 24 0 -31 -182 -35 0 -31 182 24 0 7 -45 0 -1 1 0 33 0 0 0 0 1zm-4 -27l-25 0 -1 0 0 -1 13 -80 0 -4 1 4 12 80 0 1 0 0zm143 -110l-25 0 0 63c0,11 0,22 1,32 0,10 1,19 2,28l0 0c0,3 1,5 1,7 0,2 0,3 0,3l0 3 -1 -3c0,0 0,-1 -1,-3 0,-1 -1,-3 -1,-6 -1,-3 -2,-6 -3,-10 -1,-4 -2,-8 -4,-13 -1,-5 -5,-16 -10,-33 -5,-17 -12,-39 -22,-68l-25 0 0 182 24 0 0 -64c0,-12 0,-23 0,-33 -1,-10 -2,-19 -3,-27 0,-6 -1,-10 -1,-10l0 -4 1 4 2 5 3 13c2,5 6,18 12,37 6,19 14,46 25,79l25 0 0 -182zm143 27l0 -27 -81 0 0 27 27 0 1 0 0 1 0 154 25 0 0 -154 0 -1 1 0 27 0zm88 -27l-70 0 0 182 70 0 0 -27 -45 0 0 0 0 -1 0 -50 0 -1 0 0 39 0 0 -27 -39 0 0 0 0 0 0 -48 0 -1 0 0 45 0 0 -27zm203 0l-26 0 0 78 0 1 0 0 -36 0 -1 0 0 -1 0 -78 -25 0 0 182 25 0 0 -75 0 -1 1 0 36 0 0 0 0 1 0 75 26 0 0 -182zm-126 182l-23 0c-22,-3 -33,-16 -33,-41l0 -100c0,-7 1,-13 3,-18 2,-5 4,-9 8,-13 7,-7 19,-11 33,-11 5,0 10,0 14,1 5,1 9,2 12,3l0 28c-4,-1 -8,-2 -12,-3 -4,-1 -8,-1 -12,-1 -4,0 -7,0 -10,1 -3,1 -5,2 -6,3 -2,2 -3,3 -4,5 0,2 -1,5 -1,8l0 94c0,6 2,10 5,13 3,3 8,4 15,4 10,0 19,-1 26,-4l0 28c-4,1 -8,2 -12,3 -1,0 -2,0 -3,0zm-711 -10c-3,-4 -6,-9 -7,-14l0 0c-2,-6 -3,-12 -3,-19l0 -139 25 0 0 138c0,6 1,10 4,14 3,3 7,4 12,4 6,0 10,-1 13,-4 2,-4 4,-8 4,-14l0 -138 25 0 0 139c0,7 -1,13 -3,19 -2,5 -4,10 -8,14 -13,16 -48,16 -62,0z"/>
   </g>
   <path class="fil2" d="M0 431c14,1 20,2 41,4 31,88 115,151 213,151 64,0 122,-27 163,-70 18,-2 37,-4 57,-3 -14,-6 -28,-11 -41,-14 -10,-3 -19,-5 -28,-7 -62,-13 -115,-6 -176,10 10,-15 28,-39 48,-66 -92,-53 -204,-37 -277,-5z"/>
   <path class="fil3" d="M480 361c0,-125 -101,-226 -226,-226 -124,0 -225,101 -225,226 0,12 1,23 2,35 125,-95 308,-87 421,74 18,-32 28,-70 28,-109z"/>
   <path class="fil4" d="M219 249c14,-1 21,1 32,6 0,-1 0,-1 0,-2 4,-26 10,-51 16,-73 -18,4 -37,26 -55,58 -3,5 -2,11 7,11z"/>
   <path class="fil0" d="M227 396c15,-64 53,-68 42,-30 32,-12 45,-55 37,-89l-45 -20c-47,23 -62,84 -34,139z"/>
   <path class="fil5" d="M365 234c-15,18 -32,36 -50,55 -1,0 -1,0 -2,1 10,6 16,11 24,22 4,8 10,5 12,-1 16,-33 24,-60 16,-77l0 0z"/>
   <path class="fil6" d="M379 217c44,-58 61,-110 32,-165 -5,9 -28,-1 -24,-11 -60,7 -93,51 -115,118 -9,28 -16,61 -22,96 -1,5 4,12 14,19 8,6 17,11 27,14 12,4 21,4 24,1 25,-25 47,-49 64,-72z"/>
   <path class="fil7" d="M395 54c-5,-3 -10,-8 -8,-13 -57,7 -90,46 -112,108 -1,3 -2,7 -3,10 -9,28 -16,61 -22,96 -1,5 4,12 14,19 4,3 9,6 14,8 10,-21 25,-48 35,-70 26,-57 48,-112 82,-158z"/>
   <path class="fil8" d="M405 79c-7,47 -53,127 -66,152 -4,8 -3,9 3,3 9,-11 26,-32 26,-32 16,-23 53,-95 42,-123 -2,-3 -4,-6 -5,0z"/>
   <path class="fil9" d="M278 282l35 -70 5 -10c-30,-14 -52,63 -54,72 4,3 9,6 14,8z"/>
   <path class="fil5" d="M309 212l0 0c-1,0 -2,1 -3,2l0 0 0 0 0 0 0 0c-8,11 -15,24 -22,38 -8,13 -14,28 -19,41l0 0 0 0 0 0 0 0 0 0 0 0c0,1 -1,2 0,3 0,1 0,2 1,3l0 0c0,0 0,0 1,1l0 0c0,0 0,0 1,0 0,0 0,0 0,1l0 0c1,0 1,0 1,0l0 0c1,0 2,0 3,-1 1,0 2,-1 3,-2l0 0 0 0 0 0 0 0 0 0 0 0c7,-10 15,-22 21,-35 8,-15 14,-30 20,-44l0 0 0 0 0 0 0 0 0 0c0,-1 0,-2 0,-3 0,-4 -4,-6 -7,-4z"/>
   <path class="fil2" d="M424 9l-16 36c-2,5 -16,-1 -13,-7l21 -33c3,-4 5,-6 8,-5 2,2 2,5 0,9z"/>
  </g>
 </g>
</svg>
